# xmcd
#
# Track frame offsets:
#	150
#	22134
#	30928
#	49435
#	67784
#	94542
#	111562
#	138193
#	158571
#	177346
#
# Disc length: 2717 seconds
#
# Revision: 0
# Processed by: cddbd v1.5.2PL0 Copyright (c) Steve Scherf et al.
# Submitted via: EZCDAudioConverter 6.0.7.1
#
DISCID=7c0a9b0a
DTITLE=Ash Wilson - Broken Machine 
DYEAR=2017
DGENRE=Blues
TTITLE0=Show Me How To Love You
TTITLE1=World's Gone Crazy
TTITLE2=Peace And Love
TTITLE3=Broken Machine
TTITLE4=Words Of A Woman
TTITLE5=Out Of Time
TTITLE6=The Hitcher
TTITLE7=Hold On Now
TTITLE8=Lonely Room
TTITLE9=Holding Hands
EXTD=
EXTT0=
EXTT1=
EXTT2=
EXTT3=
EXTT4=
EXTT5=
EXTT6=
EXTT7=
EXTT8=
EXTT9=
PLAYORDER=
